<svg width="67" height="57" viewBox="0 0 67 57" fill="#cb2929" xmlns="http://www.w3.org/2000/svg">
<path d="M11.582 25.7405L13.1028 29.8639C13.1599 30.0192 13.3077 30.1221 13.473 30.1221C13.6382 30.1221 13.786 30.0192 13.8432 29.8639L15.364 25.7405C16.595 22.4024 19.2264 19.7709 22.5644 18.5402L26.6878 17.0194C26.8428 16.9622 26.9457 16.8144 26.9457 16.6491C26.9457 16.4839 26.8428 16.3361 26.6878 16.2789L22.5641 14.7581C19.2262 13.5271 16.5948 10.8959 15.364 7.55801L13.8432 3.4346C13.786 3.27959 13.6382 3.17664 13.473 3.17664C13.3077 3.17664 13.1599 3.27959 13.1028 3.4346L11.582 7.55801C10.351 10.8959 7.71976 13.5271 4.38161 14.7581L0.257961 16.2789C0.102952 16.3361 0 16.4839 0 16.6491C0 16.8144 0.102952 16.9622 0.257961 17.0194L4.38138 18.5402C7.71953 19.7709 10.351 22.4021 11.582 25.7405Z" fill="#cb2929"/>
<path d="M45.0135 43.1568L40.8903 41.6362C37.5521 40.4052 34.9207 37.774 33.6899 34.4361L32.1691 30.3127C32.112 30.1577 31.9642 30.0547 31.7989 30.0547C31.6337 30.0547 31.4859 30.1577 31.4287 30.3127L29.9079 34.4359C28.6769 37.774 26.0455 40.4052 22.7076 41.6362L18.5841 43.1568C18.4291 43.214 18.3262 43.3618 18.3262 43.527C18.3262 43.6922 18.4291 43.84 18.5841 43.8972L22.7078 45.4183C26.0457 46.6493 28.6769 49.2805 29.9079 52.6184L31.4287 56.742C31.4859 56.897 31.6337 57 31.7989 57C31.9642 57 32.112 56.897 32.1691 56.742L33.6899 52.6184C34.9209 49.2805 37.5521 46.649 40.8901 45.4183L45.0137 43.8972C45.1687 43.84 45.2717 43.6922 45.2717 43.527C45.2717 43.3618 45.1685 43.214 45.0135 43.1568Z" fill="#cb2929"/>
<path d="M66.3545 25.5198L63.552 24.4863C61.2836 23.6497 59.4953 21.8614 58.6587 19.5929L57.6252 16.7907C57.5861 16.6854 57.4857 16.6152 57.3735 16.6152C57.2613 16.6152 57.1609 16.6854 57.1218 16.7907L56.0886 19.5927C55.2519 21.8614 53.4637 23.6497 51.195 24.4863L48.3927 25.5198C48.2875 25.5586 48.2173 25.659 48.2173 25.7712C48.2173 25.8835 48.2875 25.9841 48.3927 26.0229L51.1952 27.0561C53.4637 27.893 55.2519 29.6813 56.0886 31.9497L57.1218 34.7524C57.1609 34.8577 57.2613 34.9279 57.3735 34.9279C57.4857 34.9279 57.5861 34.8577 57.6252 34.7524L58.6587 31.9497C59.4953 29.6811 61.2833 27.893 63.552 27.0564L66.3545 26.0229C66.4598 25.9841 66.5299 25.8835 66.5299 25.7712C66.5299 25.659 66.4598 25.5586 66.3545 25.5198Z" fill="#cb2929"/>
<path d="M45.1495 6.21104L43.1946 5.49015C41.6122 4.9066 40.3649 3.65932 39.7816 2.07693L39.0605 0.122473C39.0335 0.0488034 38.9633 0 38.885 0C38.8067 0 38.7365 0.0488034 38.7096 0.122241L37.9887 2.07647C37.4051 3.65886 36.1576 4.90637 34.5752 5.48991L32.6203 6.21081C32.5469 6.23777 32.498 6.30795 32.498 6.38627C32.498 6.46459 32.5469 6.53477 32.6203 6.56173L34.575 7.28286C36.1576 7.86641 37.4051 9.11391 37.9887 10.6965L38.7096 12.651C38.7365 12.7244 38.8067 12.7732 38.885 12.7732C38.9633 12.7732 39.0335 12.7244 39.0605 12.651L39.7816 10.6963C40.3651 9.11368 41.6124 7.86641 43.195 7.28309L45.1497 6.56196C45.2232 6.535 45.272 6.46482 45.272 6.3865C45.272 6.30818 45.2232 6.238 45.1495 6.21104Z" fill="#cb2929"/>
</svg>
