<svg width="40" height="40" viewBox="0 0 40 40" fill="none" xmlns="http://www.w3.org/2000/svg">
<g clip-path="url(#clip0)">
<path d="M40 34.9804V37.6471C40 38.9443 38.9443 40 37.6471 40H2.35294C1.05569 40 0 38.9443 0 37.6471V34.9804C0 33.6831 1.05569 32.6275 2.35294 32.6275H37.6471C38.9443 32.6275 40 33.6831 40 34.9804Z" fill="#CB2929"/>
<path d="M3.76465 15.3726V30.2745H36.2352C36.2352 29.6019 36.2352 16.1072 36.2352 15.3726H28.8627V27.6078H23.6862V15.3726H16.3137V27.6078H11.1372V15.3726H3.76465Z" fill="#CB2929"/>
<path d="M1.17791 13.0196H38.825C40.0279 13.0196 40.4541 11.414 39.405 10.8196L20.5814 0.152941C20.2217 -0.0509804 19.7812 -0.0509804 19.4214 0.152941L0.597907 10.8196C-0.448681 11.4126 -0.0279751 13.0196 1.17791 13.0196Z" fill="#CB2929"/>
</g>
<defs>
<clipPath id="clip0">
<rect width="40" height="40" fill="white"/>
</clipPath>
</defs>
</svg>
