<svg width="53" height="49" viewBox="0 0 53 49" fill="#cb2929" xmlns="http://www.w3.org/2000/svg">
<path d="M52.7862 15.1338L44.9808 1.61334C44.6959 1.12019 44.1698 0.816162 43.6002 0.816162H27.9879C27.4183 0.816162 26.8921 1.12019 26.6073 1.61334L21.1479 11.0684H28.8721C30.3647 11.0684 31.768 11.7725 32.6655 12.9393C33.4546 12.1143 34.5645 11.5989 35.7933 11.5989C38.1826 11.5989 40.1255 13.5428 40.1255 15.931C40.1255 17.9496 38.7373 19.6506 36.8647 20.1289L42.1077 29.209C42.4374 29.7819 42.6375 30.4081 42.7115 31.0457H43.6C44.1696 31.0457 44.6958 30.7417 44.9805 30.2485L52.7861 16.7281C53.0711 16.2349 53.0711 15.627 52.7862 15.1338Z" fill="#cb2929"/>
<path d="M39.3466 30.8034L30.2528 15.0541C29.968 14.561 29.4419 14.257 28.8721 14.257H10.6869C10.1173 14.257 9.59113 14.561 9.30626 15.0541L0.213656 30.8034C-0.0712187 31.2965 -0.0712187 31.9045 0.213656 32.3976L9.30636 48.1469C9.59123 48.6401 10.1173 48.9441 10.6869 48.9441H28.8722C29.4419 48.9441 29.9681 48.6401 30.2529 48.1469L39.3467 32.3976C39.6304 31.9045 39.6304 31.2965 39.3466 30.8034ZM19.7795 36.9095C16.8524 36.9095 14.4706 34.5276 14.4706 31.6006C14.4706 28.6736 16.8525 26.2917 19.7795 26.2917C22.7066 26.2917 25.0884 28.6736 25.0884 31.6006C25.0884 34.5276 22.7067 36.9095 19.7795 36.9095Z" fill="#cb2929"/>
</svg>
