<svg width="56" height="57" viewBox="0 0 56 57" fill="#cb2929" xmlns="http://www.w3.org/2000/svg">
<path d="M27.6094 26.7188C29.5769 26.7188 31.1719 25.1238 31.1719 23.1562C31.1719 21.1887 29.5769 19.5938 27.6094 19.5938C25.6419 19.5938 24.0469 21.1887 24.0469 23.1562C24.0469 25.1238 25.6419 26.7188 27.6094 26.7188Z" fill="#cb2929"/>
<path d="M43.8633 9.79688H11.3555C10.496 9.79688 9.79688 10.496 9.79688 11.3555V45.6445C9.79688 46.504 10.496 47.2031 11.3555 47.2031H43.8633C44.7227 47.2031 45.4219 46.504 45.4219 45.6445V11.3555C45.4219 10.496 44.7227 9.79688 43.8633 9.79688ZM17.8125 37.4062C17.8125 38.3899 17.0151 39.1875 16.0312 39.1875C15.0474 39.1875 14.25 38.3899 14.25 37.4062V30.2812C14.25 29.2976 15.0474 28.5 16.0312 28.5C17.0151 28.5 17.8125 29.2976 17.8125 30.2812V37.4062ZM27.6094 30.2812C23.6806 30.2812 20.4844 27.085 20.4844 23.1562C20.4844 19.2275 23.6806 16.0312 27.6094 16.0312C31.5381 16.0312 34.7344 19.2275 34.7344 23.1562C34.7344 27.085 31.5381 30.2812 27.6094 30.2812Z" fill="#cb2929"/>
<path d="M54.6621 26.7188H49.541C49.2336 26.7188 48.9844 26.968 48.9844 27.2754V29.7246C48.9844 30.032 49.2336 30.2812 49.541 30.2812H54.6621C54.9695 30.2812 55.2188 30.032 55.2188 29.7246V27.2754C55.2188 26.968 54.9695 26.7188 54.6621 26.7188Z" fill="#cb2929"/>
<path d="M49.541 23.1562H54.6621C54.9695 23.1562 55.2188 22.907 55.2188 22.5996V18.3691C55.2188 18.0618 54.9695 17.8125 54.6621 17.8125H49.541C49.2336 17.8125 48.9844 18.0618 48.9844 18.3691V22.5996C48.9844 22.907 49.2336 23.1562 49.541 23.1562Z" fill="#cb2929"/>
<path d="M48.9844 43.3066V45.6445C48.9844 48.4728 46.6916 50.7656 43.8633 50.7656H11.3555C8.52718 50.7656 6.23438 48.4728 6.23438 45.6445V11.3555C6.23438 8.52718 8.52718 6.23438 11.3555 6.23438H43.8633C46.6916 6.23438 48.9844 8.52718 48.9844 11.3555V13.6934C48.9844 14.0007 49.2336 14.25 49.541 14.25H54.6621C54.9695 14.25 55.2188 14.0007 55.2188 13.6934V5.12109C55.2188 2.2928 52.9259 0 50.0977 0H5.12109C2.2928 0 0 2.2928 0 5.12109V51.8789C0 54.7072 2.2928 57 5.12109 57H50.0977C52.9259 57 55.2188 54.7072 55.2188 51.8789V43.3066C55.2188 42.9993 54.9695 42.75 54.6621 42.75H49.541C49.2336 42.75 48.9844 42.9993 48.9844 43.3066Z" fill="#cb2929"/>
<path d="M54.6621 33.8438H49.541C49.2336 33.8438 48.9844 34.093 48.9844 34.4004V38.6309C48.9844 38.9382 49.2336 39.1875 49.541 39.1875H54.6621C54.9695 39.1875 55.2188 38.9382 55.2188 38.6309V34.4004C55.2188 34.093 54.9695 33.8438 54.6621 33.8438Z" fill="#cb2929"/>
</svg>
