<svg width="55" height="57" viewBox="0 0 55 57" fill="#cb2929" xmlns="http://www.w3.org/2000/svg">
<path d="M49.5982 0H4.5384C2.0358 0 0 2.0358 0 4.5384V49.5982C0 51.9916 1.86269 53.9583 4.21423 54.1253V55.3795C4.21423 56.2745 4.94005 57.0003 5.83508 57.0003H10.4276C11.3227 57.0003 12.0485 56.2745 12.0485 55.3795V54.1366H41.6022V55.3791C41.6022 56.2742 42.328 57 43.2231 57H47.8156C48.7106 57 49.4364 56.2742 49.4364 55.3791V54.1366H49.5985C52.1011 54.1366 54.1369 52.1008 54.1369 49.5982V4.5384C54.1366 2.0358 52.1005 0 49.5982 0ZM49.4361 45.1408C49.4361 47.5092 47.5092 49.4361 45.1409 49.4361H8.5095C6.1411 49.4361 4.21423 47.5092 4.21423 45.1408V8.67158C4.21423 6.30319 6.1411 4.37631 8.5095 4.37631H45.1409C47.5092 4.37631 49.4361 6.30319 49.4361 8.67158V45.1408ZM21.4096 26.9873C21.4096 29.0428 19.7372 30.7152 17.6816 30.7152C15.626 30.7152 13.9536 29.0428 13.9536 26.9873C13.9536 24.9317 15.626 23.2593 17.6816 23.2593C19.7372 23.2593 21.4096 24.9317 21.4096 26.9873ZM45.1409 7.61802H8.5095C7.92858 7.61802 7.45594 8.09067 7.45594 8.67158V45.1408C7.45594 45.7218 7.92858 46.1944 8.5095 46.1944H45.1409C45.7218 46.1944 46.1944 45.7218 46.1944 45.1408V8.67158C46.1944 8.09067 45.7218 7.61802 45.1409 7.61802ZM17.6816 33.9569C13.8385 33.9569 10.7119 30.8303 10.7119 26.9873C10.7119 23.1442 13.8385 20.0176 17.6816 20.0176C21.5246 20.0176 24.6513 23.1442 24.6513 26.9873C24.6513 30.8303 21.5246 33.9569 17.6816 33.9569ZM30.5301 33.9838H29.7427C28.8477 33.9838 28.1219 33.258 28.1219 32.363C28.1219 31.468 28.8477 30.7421 29.7427 30.7421H30.5301C31.4252 30.7421 32.151 31.468 32.151 32.363C32.151 33.258 31.4252 33.9838 30.5301 33.9838ZM30.5301 28.6892H29.7427C28.8477 28.6892 28.1219 27.9633 28.1219 27.0683C28.1219 26.1733 28.8477 25.4474 29.7427 25.4474H30.5301C31.4252 25.4474 32.151 26.1733 32.151 27.0683C32.151 27.9633 31.4252 28.6892 30.5301 28.6892ZM30.5301 23.3945H29.7427C28.8477 23.3945 28.1219 22.6686 28.1219 21.7736C28.1219 20.8786 28.8477 20.1528 29.7427 20.1528H30.5301C31.4252 20.1528 32.151 20.8786 32.151 21.7736C32.151 22.6686 31.4252 23.3945 30.5301 23.3945ZM36.041 33.9838H35.2536C34.3586 33.9838 33.6328 33.258 33.6328 32.363C33.6328 31.468 34.3586 30.7421 35.2536 30.7421H36.041C36.9361 30.7421 37.6619 31.468 37.6619 32.363C37.6619 33.258 36.9361 33.9838 36.041 33.9838ZM36.041 28.6892H35.2536C34.3586 28.6892 33.6328 27.9633 33.6328 27.0683C33.6328 26.1733 34.3586 25.4474 35.2536 25.4474H36.041C36.9361 25.4474 37.6619 26.1733 37.6619 27.0683C37.6619 27.9633 36.9361 28.6892 36.041 28.6892ZM36.041 23.3945H35.2536C34.3586 23.3945 33.6328 22.6686 33.6328 21.7736C33.6328 20.8786 34.3586 20.1528 35.2536 20.1528H36.041C36.9361 20.1528 37.6619 20.8786 37.6619 21.7736C37.6619 22.6686 36.9361 23.3945 36.041 23.3945ZM41.5519 33.9838H40.7645C39.8695 33.9838 39.1437 33.258 39.1437 32.363C39.1437 31.468 39.8695 30.7421 40.7645 30.7421H41.5519C42.447 30.7421 43.1728 31.468 43.1728 32.363C43.1728 33.258 42.447 33.9838 41.5519 33.9838ZM41.5519 28.6892H40.7645C39.8695 28.6892 39.1437 27.9633 39.1437 27.0683C39.1437 26.1733 39.8695 25.4474 40.7645 25.4474H41.5519C42.447 25.4474 43.1728 26.1733 43.1728 27.0683C43.1728 27.9633 42.447 28.6892 41.5519 28.6892ZM41.5519 23.3945H40.7645C39.8695 23.3945 39.1437 22.6686 39.1437 21.7736C39.1437 20.8786 39.8695 20.1528 40.7645 20.1528H41.5519C42.447 20.1528 43.1728 20.8786 43.1728 21.7736C43.1728 22.6686 42.447 23.3945 41.5519 23.3945Z" fill="#cb2929"/>
</svg>
