<svg width="35" height="39" viewBox="0 0 35 39" fill="none" xmlns="http://www.w3.org/2000/svg">
<path d="M34.9873 37.7893L32.7175 10.1898C32.6727 9.6453 32.2099 9.22581 31.6539 9.22581H25.5603V7.89855C25.5603 3.54327 22.0017 0 17.569 0H17.4282C12.9957 0 9.34215 3.54327 9.34215 7.89855V9.22581H3.34328C2.78731 9.22581 2.32453 9.6453 2.27971 10.1898L0.00348107 37.8672C-0.0205616 38.1591 0.0807307 38.4473 0.282746 38.6624C0.484762 38.8775 0.769291 39 1.06705 39H33.9302C33.931 39 33.9322 39 33.933 39C34.5224 39 35 38.5307 35 37.9516C35 37.8964 34.9957 37.8422 34.9873 37.7893ZM11.4761 7.89855C11.4761 4.69943 14.1723 2.09677 17.4282 2.09677H17.569C20.8249 2.09677 23.4263 4.69943 23.4263 7.89855V9.22581H11.4761V7.89855Z" fill="#CB2929"/>
</svg>
