<svg width="66" height="66" viewBox="0 0 66 66" fill="none" xmlns="http://www.w3.org/2000/svg">
<path fill-rule="evenodd" clip-rule="evenodd" d="M47.0508 13.795C52.773 15.1228 54.9619 18.4688 57.7062 23.0742H47.0508V13.795ZM13.6097 23.4609C14.7301 23.4609 15.5433 24.0017 15.5433 25.2656C15.5433 26.3316 14.6807 27.1962 13.6152 27.1992H1.93359C0.865585 27.1992 0 28.0653 0 29.1328C0 30.2008 0.865585 31.0664 1.93359 31.0664H19.3359C20.414 31.0664 21.2771 31.9315 21.2771 33C21.2771 34.068 20.4115 34.9336 19.3435 34.9336H1.93359C0.865585 34.9336 0 35.7992 0 36.8672C0 37.9352 0.865585 38.8008 1.93359 38.8008H6.1875V44.6016C6.1875 45.6696 7.05309 46.5352 8.12109 46.5352H12.0079C12.7008 49.9482 15.7165 52.4648 19.2715 52.4648C22.8265 52.4648 25.8422 49.9482 26.535 46.5352H46.1681C46.8609 49.9482 49.8766 52.4648 53.4316 52.4648C56.9866 52.4648 60.0023 49.9482 60.6952 46.5352H64.0664C65.1344 46.5352 66 45.6696 66 44.6016V33C66 27.3266 60.0159 26.95 60.0104 26.9414H45.1172C44.0492 26.9414 43.1836 26.0758 43.1836 25.0078V13.4062H8.12109C7.05309 13.4062 6.1875 14.2718 6.1875 15.3398V19.5938H3.86719C2.79918 19.5938 1.93359 20.4593 1.93359 21.5273C1.93359 22.5954 2.79918 23.4609 3.86719 23.4609H13.6097ZM55.9383 42.5461C57.3225 43.9303 57.3225 46.1756 55.9383 47.5599C53.7116 49.7865 49.8867 48.2024 49.8867 45.0527C49.8867 41.9036 53.7116 40.3195 55.9383 42.5461ZM21.7781 42.5461C23.1623 43.9303 23.1623 46.1756 21.7781 47.5599C19.5515 49.7865 15.7266 48.2024 15.7266 45.0527C15.7266 41.9036 19.5515 40.3195 21.7781 42.5461Z" fill="#CB2929"/>
</svg>
