<svg width="53" height="61" viewBox="0 0 53 61" fill="none" xmlns="http://www.w3.org/2000/svg">
<path d="M26.3185 4.12317L34.2341 8.69317L36.0195 5.60088L26.3185 0L16.6177 5.60088L18.4031 8.69317L26.3185 4.12317Z" fill="#CB2929"/>
<path d="M3.57078 17.2564L11.4864 12.6864L9.70096 9.59396L0 15.1948V26.3965H3.57078V17.2564Z" fill="#CB2929"/>
<path d="M3.57078 34.383H0V45.5845L9.70096 51.1854L11.4864 48.0931L3.57078 43.523V34.383Z" fill="#CB2929"/>
<path d="M26.3185 56.6563L18.4031 52.0862L16.6177 55.1786L26.3185 60.7795L36.0195 55.1786L34.2341 52.0862L26.3185 56.6563Z" fill="#CB2929"/>
<path d="M49.0656 43.523L41.1501 48.0931L42.9355 51.1854L52.6364 45.5845V34.383H49.0656V43.523Z" fill="#CB2929"/>
<path d="M42.9355 9.59396L41.1501 12.6864L49.0656 17.2564V26.3965H52.6364V15.1948L42.9355 9.59396Z" fill="#CB2929"/>
<path d="M45.4909 41.4591V21.382L28.1035 31.4205V51.4978L45.4909 41.4591Z" fill="#CB2929"/>
<path d="M8.93091 18.2895L26.3183 28.3281L43.7057 18.2895L26.3183 8.25085L8.93091 18.2895Z" fill="#CB2929"/>
<path d="M7.14551 41.4591L24.5328 51.4978V31.4205L7.14551 21.382V41.4591Z" fill="#CB2929"/>
</svg>
