<svg width="57" height="57" viewBox="0 0 57 57" fill="#cb2929" xmlns="http://www.w3.org/2000/svg">
<path d="M0 54.8612C0 55.7834 0.74768 56.5311 1.66992 56.5311H55.3301C56.2523 56.5311 57 55.7834 57 54.8612V43.2333H0V54.8612Z" fill="#cb2929"/>
<path d="M55.3301 26.5956H1.66992C0.74768 26.5956 0 27.3433 0 28.2656V39.8934H57V28.2656C57 27.3433 56.2523 26.5956 55.3301 26.5956ZM38.7078 34.9145H18.7611C17.8389 34.9145 17.0912 34.1668 17.0912 33.2446C17.0912 32.3224 17.8389 31.5747 18.7611 31.5747H38.7078C39.63 31.5747 40.3777 32.3224 40.3777 33.2446C40.3777 34.1668 39.6301 34.9145 38.7078 34.9145Z" fill="#cb2929"/>
<path d="M28.7346 23.2865C35.1546 23.2865 40.3778 18.0633 40.3778 11.6433C40.3778 5.22318 35.1546 0 28.7346 0C22.3145 0 17.0913 5.22318 17.0913 11.6433C17.0913 18.0633 22.3145 23.2865 28.7346 23.2865ZM27.0646 8.56726C27.0646 7.64501 27.8123 6.89733 28.7346 6.89733C29.6568 6.89733 30.4045 7.64501 30.4045 8.56726V14.7196C30.4045 15.6418 29.6568 16.3895 28.7346 16.3895C27.8123 16.3895 27.0646 15.6418 27.0646 14.7196V8.56726Z" fill="#cb2929"/>
</svg>
