<svg width="27" height="27" viewBox="0 0 27 27" fill="none" xmlns="http://www.w3.org/2000/svg">
<circle cx="13.2594" cy="13.6002" r="12.9635" fill="white"/>
<path d="M12.8847 17.2989C13.2752 17.6894 13.9084 17.6894 14.2989 17.2989L20.6629 10.9349C21.0534 10.5444 21.0534 9.91124 20.6629 9.52071C20.2723 9.13019 19.6392 9.13019 19.2487 9.52071L13.5918 15.1776L7.93494 9.52071C7.54442 9.13019 6.91125 9.13019 6.52073 9.52071C6.1302 9.91124 6.1302 10.5444 6.52073 10.9349L12.8847 17.2989ZM12.5918 5.29028L12.5918 16.5918L14.5918 16.5918L14.5918 5.29028L12.5918 5.29028Z" fill="black"/>
<path d="M8.93823 18.9157C8.38595 18.9157 7.93823 19.3634 7.93823 19.9157C7.93823 20.468 8.38595 20.9157 8.93823 20.9157V18.9157ZM18.2453 20.9157C18.7976 20.9157 19.2453 20.468 19.2453 19.9157C19.2453 19.3634 18.7976 18.9157 18.2453 18.9157V20.9157ZM8.93823 20.9157L18.2453 20.9157V18.9157L8.93823 18.9157V20.9157Z" fill="black"/>
</svg>
