<svg width="57" height="57" viewBox="0 0 57 57" fill="none" xmlns="http://www.w3.org/2000/svg">
<path d="M56.0199 23.5797C55.4783 23.5797 55.0391 24.1333 55.0391 24.8146C55.0391 26.7048 55.0391 30.2976 55.0391 32.1866C55.0391 32.8679 55.4784 33.4204 56.0211 33.4204C56.5628 33.4204 57 32.8678 57 32.1866C57 30.2987 57 26.7058 57 24.8135C57 24.1333 56.5616 23.5797 56.0199 23.5797Z" fill="#CB2929"/>
<path d="M0.98214 23.5797C0.440458 23.5797 0 24.1333 0 24.8146C0 26.707 0 30.2943 0.0011399 32.1844C0.0011399 32.8658 0.440458 33.4183 0.98214 33.4206C1.52393 33.4206 1.96211 32.8679 1.96211 32.1867C1.96211 30.2977 1.96211 26.706 1.96325 24.8136C1.96314 24.1333 1.52393 23.5797 0.98214 23.5797Z" fill="#CB2929"/>
<path d="M13.0595 12.4035C11.2523 12.4035 9.78613 14.0614 9.78613 16.1052C9.78613 22.301 9.78727 34.7012 9.78841 40.8948C9.78841 42.9386 11.2523 44.5964 13.0596 44.5964C14.8669 44.5964 16.3329 42.9375 16.3329 40.8948C16.3329 38.465 16.3329 35.0762 16.3329 31.4855C18.2198 31.4855 35.1086 31.4855 40.1425 31.4855C40.1425 35.0773 40.1425 38.465 40.1425 40.8959C40.1425 42.9386 41.6085 44.5964 43.416 44.5964C45.2232 44.5964 46.6871 42.9375 46.6871 40.8948C46.6871 34.699 46.6871 22.2988 46.6871 16.1052C46.6871 14.0603 45.2231 12.4035 43.416 12.4035C41.6087 12.4035 40.1425 14.0592 40.1425 16.1052C40.1425 18.5349 40.1425 21.9227 40.1425 25.5143C35.1067 25.5143 18.2198 25.5143 16.3329 25.5143C16.3329 21.9227 16.3329 18.5348 16.3329 16.1041C16.3329 14.0593 14.8679 12.4035 13.0595 12.4035Z" fill="#CB2929"/>
<path d="M51.0222 17.3479C50.9152 17.3479 50.8096 17.3479 50.7017 17.3479C49.3401 17.3479 48.2349 18.45 48.2349 19.8135C48.2349 24.1049 48.2349 32.8951 48.2349 37.1863C48.2349 38.5489 49.34 39.6542 50.7025 39.6542C50.8094 39.6542 50.9174 39.6542 51.0231 39.6542C52.3856 39.6542 53.4907 38.5522 53.4907 37.1885C53.4907 32.8983 53.4907 24.1071 53.4898 19.8156C53.491 18.4522 52.3847 17.3479 51.0222 17.3479Z" fill="#CB2929"/>
<path d="M5.94066 17.3479C5.83385 17.3479 5.7259 17.3479 5.61909 17.3479C4.25657 17.3479 3.15234 18.45 3.15234 19.8135C3.15234 24.1049 3.15234 32.8951 3.15234 37.1863C3.15234 38.55 4.25657 39.6542 5.61909 39.6542C5.7259 39.6542 5.83385 39.6542 5.93952 39.6542C7.30204 39.6542 8.40627 38.5522 8.40627 37.1885C8.40627 32.8983 8.40627 24.1071 8.40627 19.8156C8.40741 18.4522 7.30318 17.3479 5.94066 17.3479Z" fill="#CB2929"/>
</svg>
