<svg width="50" height="50" viewBox="0 0 50 50" fill="none" xmlns="http://www.w3.org/2000/svg">
<g clip-path="url(#clip0)">
<path d="M46.8621 33.1896V17.6379L43.9324 18.6144V33.1896C42.1106 33.803 40.7944 35.5262 40.7944 37.552V45.3971C40.7944 46.206 41.4503 46.8619 42.2593 46.8619H48.5353C49.3442 46.8619 50.0001 46.206 50.0001 45.3971V37.552C50.0001 35.5262 48.6839 33.803 46.8621 33.1896Z" fill="#CB2929"/>
<path d="M23.6108 24.4621L9.41406 19.7299V29.707C9.41406 30.0956 9.56846 30.4682 9.84316 30.7429C13.8922 34.7914 19.2753 37.0211 25.0007 37.0211C30.7262 37.0211 36.1088 34.7914 40.1569 30.7427C40.4316 30.468 40.5859 30.0954 40.5859 29.707V19.7299L26.3897 24.462C25.4192 24.7852 24.4424 24.7392 23.6108 24.4621Z" fill="#CB2929"/>
<path d="M25 21.7578C25.1564 21.7578 25.3129 21.7327 25.4632 21.6826L48.9983 13.8376C49.5965 13.6382 50 13.0784 50 12.448C50 11.8175 49.5966 11.2577 48.9983 11.0583L25.4632 3.21329C25.1626 3.11319 24.8374 3.11319 24.5368 3.21329L1.00166 11.0583C0.403418 11.2576 0 11.8174 0 12.448C0 13.0785 0.403418 13.6382 1.00166 13.8376L24.5368 21.6826C24.6871 21.7327 24.8436 21.7578 25 21.7578Z" fill="#CB2929"/>
</g>
<defs>
<clipPath id="clip0">
<rect width="50" height="50" fill="white"/>
</clipPath>
</defs>
</svg>
