<svg width="25" height="25" viewBox="0 0 25 25" fill="none" xmlns="http://www.w3.org/2000/svg">
<path d="M22.8027 0.781189H2.14844C0.936816 0.781189 0 1.76683 0 2.97845V17.6269C0 18.8385 0.985645 19.8242 2.19727 19.8242H4.44336V23.4863C4.44336 23.7824 4.62144 24.0499 4.89541 24.1629C5.16548 24.2756 5.48223 24.2155 5.69365 24.0041L9.87358 19.8242H22.8027C24.0144 19.8242 25 18.8385 25 17.6269V2.97845C25 1.76678 24.0144 0.781189 22.8027 0.781189ZM14.3003 14.1901C13.884 14.5377 13.4413 14.9068 12.9764 15.3052C12.7044 15.5401 12.2967 15.5411 12.0236 15.3052C11.5587 14.9068 11.116 14.5377 10.6997 14.1901C8.25566 12.1494 6.64062 10.8019 6.64062 8.71263C6.64062 6.75853 8.08828 5.22792 9.93652 5.22792C11.1847 5.22792 11.9972 5.89383 12.5 6.56903C13.0028 5.89383 13.8153 5.22792 15.0635 5.22792C16.9117 5.22792 18.3594 6.75858 18.3594 8.71263C18.3594 10.8019 16.7443 12.1494 14.3003 14.1901Z" fill="white"/>
<path d="M15.0634 6.69275C13.7037 6.69275 13.2238 8.29065 13.2045 8.35857C13.1137 8.67112 12.8261 8.88855 12.5007 8.88855C12.5007 8.88855 12.4978 8.88855 12.4971 8.88855C12.1709 8.8864 11.8849 8.67185 11.7955 8.35857C11.7761 8.2906 11.2962 6.69275 9.93652 6.69275C8.89297 6.69275 8.10547 7.56106 8.10547 8.71263C8.10547 10.1159 9.43511 11.2267 11.6388 13.0657C11.9149 13.296 12.2024 13.5363 12.5 13.7881C12.7976 13.5363 13.0851 13.296 13.3612 13.0657C15.5649 11.2267 16.8945 10.1159 16.8945 8.71263C16.8945 7.56106 16.107 6.69275 15.0634 6.69275Z" fill="black"/>
</svg>
