<svg width="44" height="57" viewBox="0 0 44 57" fill="none" xmlns="http://www.w3.org/2000/svg">
<path d="M43.019 6.45298L43.019 1.52086L39.7926 4.74731L36.5661 7.97359L36.5661 49.1607L39.7926 52.3873L43.019 55.6136L43.019 50.5472L43.019 6.45298Z" fill="#CB2929"/>
<path d="M7.83941 6.45291L35.0454 6.45291L38.2718 3.22645L41.4983 0L36.5662 -2.1559e-07L6.45311 -1.53187e-06L1.38667 -1.75333e-06L4.61295 3.22645L7.83941 6.45291Z" fill="#CB2929"/>
<path d="M6.45312 49.0263L6.45312 8.10807L3.2265 4.88162L0.000221495 1.65534L0.000221286 6.45296L0.000219358 50.5471L0.000219143 55.4791L3.22649 52.2528L6.45312 49.0263Z" fill="#CB2929"/>
<path d="M34.911 50.5471L7.9739 50.5471L4.74744 53.7734L1.52116 57L6.45311 57L36.5662 57L41.3638 57L38.1373 53.7734L34.911 50.5471Z" fill="#CB2929"/>
</svg>
