<svg width="45" height="57" viewBox="0 0 45 57" fill="none" xmlns="http://www.w3.org/2000/svg">
<path d="M44.1501 5.94047C43.6643 5.45475 43.0055 5.18188 42.3182 5.18188C42.318 5.18188 42.3177 5.18188 42.3176 5.18188L39.7273 5.18278V7.77371V10.3646V46.6364V49.2273V51.8183H42.3182C43.7491 51.8183 44.9092 50.6582 44.9092 49.2273V7.77282C44.909 7.08548 44.6362 6.42642 44.1501 5.94047Z" fill="#CB2929"/>
<path d="M33.6198 0.605988C33.033 0.113696 32.2586 -0.0939305 31.5042 0.0396631L2.14061 5.22454C0.902535 5.44308 0 6.51884 0 7.77596V49.2274C0 50.4846 0.902646 51.5606 2.14072 51.7789L31.5043 56.9607C31.6543 56.987 31.8047 57.0001 31.9544 57.0001C32.5588 57.0001 33.1498 56.7884 33.6199 56.394C34.2067 55.9017 34.5454 55.1752 34.5454 54.4092V53.8722V51.8183V49.2274V46.6364V10.366V7.77506V5.18413V2.59097C34.5454 1.82514 34.2067 1.0985 33.6198 0.605988ZM23.4234 32.0599C22.9417 32.542 22.273 32.8182 21.5909 32.8182C20.9087 32.8182 20.242 32.5419 19.7583 32.0597C19.2763 31.5764 19 30.9097 19 30.2272C19 29.545 19.2763 28.8781 19.7583 28.3948C20.2419 27.9127 20.9086 27.6363 21.5909 27.6363C22.273 27.6363 22.9417 27.9126 23.4234 28.3948C23.9053 28.8783 24.1819 29.545 24.1819 30.2272C24.1818 30.9098 23.9052 31.5765 23.4234 32.0599Z" fill="#CB2929"/>
</svg>
