<svg width="57" height="57" viewBox="0 0 57 57" fill="none" xmlns="http://www.w3.org/2000/svg">
<g clip-path="url(#clip0)">
<path d="M1.89997 53.2522H18.0499C19.0993 53.2522 19.9499 52.4016 19.9499 51.3523V41.8524C19.9499 41.3275 20.3752 40.9022 20.9001 40.9022H22.8001V16.2021H20.9001C20.3752 16.2021 19.9499 15.7768 19.9499 15.2524V5.75208C19.9499 4.70273 19.0993 3.85211 18.0499 3.85211H1.89997C0.850616 3.85211 0 4.70273 0 5.75208V51.3523C0 52.4016 0.850616 53.2522 1.89997 53.2522ZM13.7751 7.65249C15.0867 7.65249 16.15 8.71576 16.15 10.0273C16.15 11.3389 15.0867 12.4022 13.7751 12.4022C12.4635 12.4022 11.3998 11.3389 11.3998 10.0273C11.3998 8.71576 12.4635 7.65249 13.7751 7.65249ZM13.7751 26.6522C15.0867 26.6522 16.15 27.7155 16.15 29.0275C16.15 30.3391 15.0867 31.4023 13.7751 31.4023C12.4635 31.4023 11.3998 30.3391 11.3998 29.0275C11.3998 27.7155 12.4635 26.6522 13.7751 26.6522ZM13.7751 44.7021C15.0867 44.7021 16.15 45.7654 16.15 47.0774C16.15 48.389 15.0867 49.4523 13.7751 49.4523C12.4635 49.4523 11.3998 48.389 11.3998 47.0774C11.3998 45.7654 12.4635 44.7021 13.7751 44.7021ZM6.1748 13.3524C7.48682 13.3524 8.55009 14.4157 8.55009 15.7273C8.55009 17.0388 7.48682 18.1021 6.1748 18.1021C4.86321 18.1021 3.79994 17.0388 3.79994 15.7273C3.79994 14.4157 4.86321 13.3524 6.1748 13.3524ZM6.1748 39.0022C7.48682 39.0022 8.55009 40.0655 8.55009 41.3771C8.55009 42.6891 7.48682 43.7524 6.1748 43.7524C4.86321 43.7524 3.79994 42.6891 3.79994 41.3771C3.79994 40.0655 4.86321 39.0022 6.1748 39.0022Z" fill="#CB2929"/>
<path d="M55.1001 53.2522C56.1481 53.2492 56.997 52.4003 57 51.3523V5.75208C56.997 4.70403 56.1481 3.85516 55.1001 3.85211H34.2V12.4022H36.0999C36.6248 12.4022 37.0501 12.8275 37.0501 13.3524V43.7524C37.0501 44.2768 36.6248 44.7021 36.0999 44.7021H34.2V53.2522H55.1001ZM50.8252 13.3524C52.1368 13.3524 53.2001 14.4157 53.2001 15.7273C53.2001 17.0388 52.1368 18.1021 50.8252 18.1021C49.5132 18.1021 48.45 17.0388 48.45 15.7273C48.45 14.4157 49.5132 13.3524 50.8252 13.3524ZM50.8252 39.0022C52.1368 39.0022 53.2001 40.0655 53.2001 41.3771C53.2001 42.6891 52.1368 43.7524 50.8252 43.7524C49.5132 43.7524 48.45 42.6891 48.45 41.3771C48.45 40.0655 49.5132 39.0022 50.8252 39.0022ZM43.2249 7.65249C44.5365 7.65249 45.6002 8.71576 45.6002 10.0273C45.6002 11.3389 44.5365 12.4022 43.2249 12.4022C41.9133 12.4022 40.8501 11.3389 40.8501 10.0273C40.8501 8.71576 41.9133 7.65249 43.2249 7.65249ZM43.2249 26.6522C44.5365 26.6522 45.6002 27.7155 45.6002 29.0275C45.6002 30.3391 44.5365 31.4023 43.2249 31.4023C41.9133 31.4023 40.8501 30.3391 40.8501 29.0275C40.8501 27.7155 41.9133 26.6522 43.2249 26.6522ZM43.2249 44.7021C44.5365 44.7021 45.6002 45.7654 45.6002 47.0774C45.6002 48.389 44.5365 49.4523 43.2249 49.4523C41.9133 49.4523 40.8501 48.389 40.8501 47.0774C40.8501 45.7654 41.9133 44.7021 43.2249 44.7021Z" fill="#CB2929"/>
<path d="M25.2519 55.4223C27.3224 56.329 29.6777 56.329 31.7481 55.4223C32.0925 55.2579 32.3082 54.9069 32.3 54.5251V2.57924C32.3087 2.19786 32.0925 1.84648 31.7481 1.6821C29.6777 0.775381 27.3224 0.775381 25.2519 1.6821C24.9075 1.84648 24.6914 2.19786 24.7001 2.57924V54.5251C24.6918 54.9069 24.9075 55.2579 25.2519 55.4223Z" fill="#CB2929"/>
</g>
<defs>
<clipPath id="clip0">
<rect width="57" height="57" fill="white"/>
</clipPath>
</defs>
</svg>
