<svg width="57" height="57" viewBox="0 0 57 57" fill="none" xmlns="http://www.w3.org/2000/svg">
<path d="M32.4308 1.63123C32.4408 1.23767 32.2173 0.875418 31.8612 0.707556C29.7198 -0.235689 27.2802 -0.235689 25.1389 0.707556C24.7827 0.875418 24.5592 1.23767 24.5692 1.63123V2.94847H32.4308V1.63123Z" fill="#CB2929"/>
<path d="M24.5691 4.91364H32.4308V25.5515H24.5691V4.91364Z" fill="#CB2929"/>
<path d="M24.5691 27.5172H32.4308V29.4828H24.5691V27.5172Z" fill="#CB2929"/>
<path d="M25.1389 56.2924C27.2802 57.2357 29.7198 57.2357 31.8612 56.2924C32.2173 56.1246 32.4408 55.7623 32.4308 55.3688V54.0515H24.5692V55.3688C24.5592 55.7623 24.7827 56.1246 25.1389 56.2924Z" fill="#CB2929"/>
<path d="M24.5691 31.4485H32.4308V52.0864H24.5691V31.4485Z" fill="#CB2929"/>
<path d="M5.89648 53.0692H22.6035V30.4656H19.6551C19.1123 30.4656 18.6722 30.0256 18.6722 29.4828V9.82776C18.6722 6.57098 16.0326 3.93085 12.7758 3.93085H5.89648C2.64013 3.93085 0 6.57098 0 9.82776V47.1723C0 50.429 2.64013 53.0692 5.89648 53.0692ZM9.33634 49.1379C7.9791 49.1379 6.8793 48.0381 6.8793 46.6808C6.8793 45.324 7.9791 44.2242 9.33634 44.2242C10.6932 44.2242 11.793 45.324 11.793 46.6808C11.793 48.0381 10.6932 49.1379 9.33634 49.1379ZM9.33634 7.86212C10.6932 7.86212 11.793 8.96192 11.793 10.3192C11.793 11.676 10.6932 12.7758 9.33634 12.7758C7.9791 12.7758 6.8793 11.676 6.8793 10.3192C6.8793 8.96192 7.9791 7.86212 9.33634 7.86212ZM6.38789 25.5516C7.7447 25.5516 8.84493 26.6518 8.84493 28.0086C8.84493 29.3654 7.7447 30.4656 6.38789 30.4656C5.03107 30.4656 3.93084 29.3654 3.93084 28.0086C3.93084 26.6518 5.03107 25.5516 6.38789 25.5516Z" fill="#CB2929"/>
<path d="M38.3278 27.5172V47.1723C38.3278 50.429 40.9675 53.0692 44.2242 53.0692H51.1035C54.3599 53.0692 57 50.429 57 47.1723V9.82776C57 6.57098 54.3599 3.93085 51.1035 3.93085H34.3965V26.5344H37.3449C37.8877 26.5344 38.3278 26.9745 38.3278 27.5172ZM53.0692 28.9914C53.0692 30.3482 51.9689 31.4485 50.6121 31.4485C49.2553 31.4485 48.1551 30.3482 48.1551 28.9914C48.1551 27.6346 49.2553 26.5344 50.6121 26.5344C51.9689 26.5344 53.0692 27.6346 53.0692 28.9914ZM47.6637 7.86212C49.0209 7.86212 50.1207 8.96192 50.1207 10.3192C50.1207 11.676 49.0209 12.7758 47.6637 12.7758C46.3069 12.7758 45.2071 11.676 45.2071 10.3192C45.2071 8.96192 46.3069 7.86212 47.6637 7.86212ZM47.6637 44.2242C49.0209 44.2242 50.1207 45.324 50.1207 46.6808C50.1207 48.0381 49.0209 49.1379 47.6637 49.1379C46.3069 49.1379 45.2071 48.0381 45.2071 46.6808C45.2071 45.324 46.3069 44.2242 47.6637 44.2242Z" fill="#CB2929"/>
</svg>
