<svg width="34" height="30" viewBox="0 0 34 30" fill="none" xmlns="http://www.w3.org/2000/svg">
<path d="M4.60393 29.2431C4.60393 29.2431 4.57385 30 5.3132 30C6.233 30 13.8483 29.99 13.8483 29.99L13.8608 22.9963C13.8608 22.9963 13.7405 21.8434 14.8596 21.8434H18.4009C19.7242 21.8434 19.6428 22.9963 19.6428 22.9963L19.6277 29.9674C19.6277 29.9674 26.8483 29.9674 27.9824 29.9674C28.921 29.9674 28.8784 29.0251 28.8784 29.0251V16.1316L17.1039 5.65791L4.60393 16.1316V29.2431Z" fill="white"/>
<path d="M0 15.1566C0 15.1566 1.0614 17.1128 3.37594 15.1566L17.208 3.45489L30.1767 15.084C32.8559 17.0163 33.8596 15.084 33.8596 15.084L17.208 0L0 15.1566Z" fill="white"/>
<path d="M29.8621 3.42729H26.5262L26.54 7.4724L29.8621 10.2907V3.42729Z" fill="white"/>
</svg>
