<svg width="62" height="65" viewBox="0 0 62 65" fill="none" xmlns="http://www.w3.org/2000/svg">
<g clip-path="url(#clip0)">
<path d="M24.6182 23.3641C26.3178 23.3641 27.6955 21.9694 27.6955 20.2489C27.6955 18.5284 26.3178 17.1337 24.6182 17.1337C22.9187 17.1337 21.541 18.5284 21.541 20.2489C21.541 21.9694 22.9187 23.3641 24.6182 23.3641Z" fill="#CB2929"/>
<path d="M38.6574 8.56685H10.5777C9.83535 8.56685 9.23145 9.17821 9.23145 9.92976V39.9137C9.23145 40.6653 9.83535 41.2766 10.5777 41.2766H38.6574C39.3998 41.2766 40.0037 40.6653 40.0037 39.9137V9.92976C40.0037 9.17821 39.3998 8.56685 38.6574 8.56685ZM16.1552 32.7098C16.1552 33.57 15.4664 34.2674 14.6166 34.2674C13.7668 34.2674 13.078 33.57 13.078 32.7098V26.4794C13.078 25.6192 13.7668 24.9217 14.6166 24.9217C15.4664 24.9217 16.1552 25.6192 16.1552 26.4794V32.7098ZM24.6176 26.4794C21.224 26.4794 18.4631 23.6844 18.4631 20.2489C18.4631 16.8134 21.224 14.0185 24.6176 14.0185C28.0112 14.0185 30.772 16.8134 30.772 20.2489C30.772 23.6844 28.0112 26.4794 24.6176 26.4794Z" fill="#CB2929"/>
<path d="M47.9854 23.3641H43.5619C43.2964 23.3641 43.0811 23.5821 43.0811 23.8509V25.9926C43.0811 26.2614 43.2964 26.4794 43.5619 26.4794H47.9854C48.2509 26.4794 48.4662 26.2614 48.4662 25.9926V23.8509C48.4662 23.5821 48.2509 23.3641 47.9854 23.3641Z" fill="#CB2929"/>
<path d="M43.5619 20.2489H47.9854C48.2509 20.2489 48.4662 20.031 48.4662 19.7622V16.0628C48.4662 15.7941 48.2509 15.5761 47.9854 15.5761H43.5619C43.2964 15.5761 43.0811 15.7941 43.0811 16.0628V19.7622C43.0811 20.031 43.2964 20.2489 43.5619 20.2489Z" fill="#CB2929"/>
<path d="M43.0814 37.8694V39.9137C43.0814 42.3869 41.1009 44.3919 38.6579 44.3919H10.5782C8.13516 44.3919 6.15468 42.3869 6.15468 39.9137V9.92976C6.15468 7.45657 8.13516 5.45163 10.5782 5.45163H38.6579C41.1009 5.45163 43.0814 7.45657 43.0814 9.92976V11.9741C43.0814 12.2429 43.2967 12.4609 43.5622 12.4609H47.9857C48.2512 12.4609 48.4666 12.2429 48.4666 11.9741V4.47813C48.4666 2.00493 46.4861 0 44.043 0H5.19305C2.75002 0 0.769531 2.00493 0.769531 4.47813V45.3654C0.769531 47.8386 2.75002 49.8435 5.19305 49.8435H44.043C46.4861 49.8435 48.4666 47.8386 48.4666 45.3654V37.8694C48.4666 37.6006 48.2512 37.3826 47.9857 37.3826H43.5622C43.2967 37.3826 43.0814 37.6006 43.0814 37.8694Z" fill="#CB2929"/>
<path d="M47.9854 29.5946H43.5619C43.2964 29.5946 43.0811 29.8125 43.0811 30.0813V33.7806C43.0811 34.0494 43.2964 34.2674 43.5619 34.2674H47.9854C48.2509 34.2674 48.4662 34.0494 48.4662 33.7806V30.0813C48.4662 29.8125 48.2509 29.5946 47.9854 29.5946Z" fill="#CB2929"/>
</g>
<path d="M56.7978 46.4009L56.7893 46.394L56.7808 46.3872L56.4107 46.0931L56.7824 45.7978L56.7886 45.7929L56.7948 45.7879C58.3876 44.5086 58.7208 42.3309 57.8181 40.6472L57.8004 40.6143L57.782 40.5818L55.5265 36.6155C54.5846 34.9118 52.5138 34.0504 50.5423 34.7894L50.5019 34.8046L50.462 34.8208L50.1161 34.962L50.0599 34.5636C49.7946 32.5415 48.0666 31.0395 46.039 31.0395H41.4927C39.4758 31.0395 37.7393 32.531 37.4737 34.5557L37.4164 34.9626L37.0669 34.8199L37.0485 34.8125L37.0301 34.8052C35.1631 34.0718 32.9899 34.8353 32.0114 36.6075L29.7588 40.5687C28.7578 42.3076 29.1728 44.5289 30.7367 45.7884L30.7443 45.7945L30.7518 45.8005L31.1213 46.0941L30.7502 46.3889L30.7423 46.3952L30.7344 46.4016C29.1444 47.6825 28.8128 49.8593 29.7167 51.5418L29.7338 51.5736L29.7516 51.605L32.0076 55.5722C32.9449 57.2657 35.0044 58.139 36.9873 57.3988L37.0297 57.383L37.0716 57.3659L37.4167 57.2251L37.4727 57.6218C37.7372 59.6418 39.4606 61.1483 41.4936 61.1483H46.0399C48.0531 61.1483 49.7938 59.6604 50.0599 57.6321L50.1173 57.2252L50.4667 57.3678L50.4822 57.3741L50.4978 57.3803C50.9658 57.5652 51.4688 57.6645 51.9877 57.6645C53.4588 57.6645 54.8145 56.8629 55.5223 55.5809L57.7875 51.5939L57.8044 51.5641L57.8207 51.5338C58.7354 49.8345 58.3658 47.6658 56.7978 46.4009ZM43.7658 47.112C43.2882 47.112 42.8125 46.6992 42.8125 46.0939C42.8125 45.4885 43.2882 45.0757 43.7658 45.0757C44.2434 45.0757 44.7191 45.4885 44.7191 46.0939C44.7191 46.6992 44.2434 47.112 43.7658 47.112Z" fill="#CB2929" stroke="white" stroke-width="6"/>
<defs>
<clipPath id="clip0">
<rect width="49.2356" height="49.8435" fill="white"/>
</clipPath>
</defs>
</svg>
