<svg width="30" height="31" viewBox="0 0 30 31" fill="none" xmlns="http://www.w3.org/2000/svg">
<g clip-path="url(#clip0)">
<path d="M15 12.1659C13.4143 12.1659 12.1289 13.4513 12.1289 15.037C12.1289 16.6227 13.4143 17.9081 15 17.9081C16.5857 17.9081 17.8711 16.6227 17.8711 15.037C17.8711 13.4513 16.5857 12.1659 15 12.1659Z" fill="black"/>
<path d="M20.0798 8.32251C20.4538 8.46052 20.7924 8.68071 21.0702 8.96681C21.3563 9.24467 21.5765 9.58296 21.7145 9.95718C21.8324 10.2607 21.9727 10.7166 22.0109 11.5564C22.0524 12.4648 22.0613 12.7372 22.0613 15.037C22.0613 17.337 22.0526 17.6094 22.0112 18.5176C21.9727 19.3574 21.8324 19.8135 21.7145 20.1168C21.5765 20.491 21.3563 20.8295 21.0702 21.1072C20.7924 21.3933 20.4541 21.6134 20.0798 21.7517C19.7764 21.8696 19.3202 22.0099 18.4804 22.0481C17.5722 22.0895 17.2999 22.0984 14.9998 22.0985C12.7 22.0985 12.4276 22.0895 11.5192 22.0481C10.6794 22.0099 10.2235 21.8696 9.92001 21.7517C9.54579 21.6134 9.20751 21.3935 8.92964 21.1074C8.64354 20.8295 8.42336 20.4912 8.28534 20.117C8.16724 19.8135 8.02693 19.3574 7.98871 18.5176C7.94728 17.6094 7.93858 17.3372 7.93858 15.0372C7.93858 12.737 7.94728 12.4646 7.98871 11.5566C8.02693 10.7168 8.16724 10.2607 8.28534 9.95718C8.5751 9.20599 9.16882 8.61227 9.92001 8.32251C10.2235 8.20463 10.6794 8.06433 11.5192 8.02588C12.4276 7.98445 12.7 7.97575 14.9998 7.97575C17.2999 7.97575 17.5722 7.98445 18.4804 8.02588C19.3202 8.0641 19.7764 8.2044 20.0798 8.32251ZM10.5771 15.037C10.5771 17.4798 12.5572 19.4601 15 19.4601C17.4429 19.4601 19.423 17.4798 19.423 15.037C19.423 12.5944 17.4429 10.6141 15 10.6141C12.5572 10.6141 10.5771 12.5944 10.5771 15.037ZM18.5642 10.4392C18.5642 11.01 19.027 11.4728 19.5978 11.4728C20.1687 11.4728 20.6315 11.01 20.6315 10.4392C20.6315 9.86838 20.1687 9.40558 19.5978 9.40558C19.027 9.40581 18.5642 9.86838 18.5642 10.4392Z" fill="black"/>
<path d="M30 15.037C30 23.32 23.283 30.037 15 30.037C6.717 30.037 1.61374e-06 23.32 1.25168e-06 15.037C8.89616e-07 6.75398 6.717 0.0369864 15 0.0369861C23.283 0.0369857 30 6.75398 30 15.037ZM11.4489 6.47566C10.532 6.51732 9.90601 6.66312 9.35806 6.87598C8.20107 7.32344 7.28645 8.23805 6.83899 9.39505C6.62613 9.94276 6.48056 10.569 6.43868 11.4857C6.39679 12.4042 6.38672 12.6976 6.38672 15.0368C6.38672 17.3762 6.39679 17.6694 6.43868 18.5881C6.48056 19.5048 6.62613 20.131 6.83899 20.6787C7.05528 21.2536 7.39426 21.7741 7.83257 22.2044C8.26264 22.6425 8.78334 22.9815 9.35806 23.1978C9.90578 23.4106 10.532 23.5564 11.4487 23.5981C12.3674 23.6404 12.6608 23.6503 15 23.6503C17.3392 23.6503 17.6326 23.6404 18.5511 23.5983C19.468 23.5567 20.094 23.4111 20.6419 23.1982C21.2167 22.9819 21.7374 22.6427 22.1674 22.2044C22.6057 21.7744 22.9447 21.2536 23.161 20.6789C23.3739 20.131 23.5194 19.505 23.5613 18.5881C23.6032 17.6696 23.6133 17.3762 23.6133 15.037C23.6133 12.6978 23.6032 12.4044 23.5611 11.4859C23.5194 10.569 23.3739 9.94299 23.1612 9.39505C22.9449 8.82033 22.6057 8.29962 22.1674 7.86932C21.7371 7.43124 21.2167 7.09204 20.6419 6.87598C20.094 6.66289 19.468 6.51732 18.5511 6.47543C17.6326 6.43355 17.3392 6.4237 15 6.4237C12.6608 6.4237 12.3674 6.43355 11.4489 6.47566Z" fill="black"/>
</g>
<defs>
<clipPath id="clip0">
<rect width="30" height="30" fill="white" transform="matrix(-4.37114e-08 -1 -1 4.37114e-08 30 30.037)"/>
</clipPath>
</defs>
</svg>
