<svg width="44" height="46" viewBox="0 0 44 46" fill="none" xmlns="http://www.w3.org/2000/svg">
<path d="M32.1155 25.2219C32.8558 23.38 31.9628 21.2868 30.1209 20.5464C28.2791 19.8061 26.1858 20.6991 25.4455 22.541C24.7051 24.3828 25.5981 26.4761 27.44 27.2164C29.2819 27.9568 31.3751 27.0638 32.1155 25.2219Z" fill="#CB2929"/>
<path d="M37.2342 22.3557C38.6374 20.9525 38.6374 18.6774 37.2342 17.2742C35.8309 15.8709 33.5558 15.8709 32.1526 17.2742C30.7494 18.6774 30.7494 20.9525 32.1526 22.3557C33.5558 23.759 35.8309 23.759 37.2342 22.3557Z" fill="#CB2929"/>
<path d="M41.896 15.0395C42.6225 13.1917 41.7134 11.1048 39.8656 10.3784C38.0177 9.65196 35.9309 10.561 35.2045 12.4089C34.478 14.2567 35.3871 16.3435 37.2349 17.07C39.0828 17.7964 41.1696 16.8873 41.896 15.0395Z" fill="#CB2929"/>
<path d="M43.2837 6.49427C43.2225 4.9839 42.2372 3.73004 40.8951 3.25306V1.34766C40.8951 0.603391 40.2917 0 39.5475 0C38.8032 0 38.1998 0.603391 38.1998 1.34766V3.37076C36.9121 3.9595 36.0413 5.28299 36.1021 6.78527C36.1824 8.76839 37.8552 10.3109 39.8384 10.2306C41.8216 10.1503 43.3641 8.47748 43.2837 6.49427Z" fill="#CB2929"/>
<path d="M14.6948 27.4914C16.6796 27.4914 18.2886 25.8824 18.2886 23.8976C18.2886 21.9129 16.6796 20.3039 14.6948 20.3039C12.7101 20.3039 11.1011 21.9129 11.1011 23.8976C11.1011 25.8824 12.7101 27.4914 14.6948 27.4914Z" fill="#CB2929"/>
<path d="M8.77832 23.4069C10.7631 23.4069 12.3721 21.7979 12.3721 19.8132C12.3721 17.8284 10.7631 16.2194 8.77832 16.2194C6.79355 16.2194 5.18457 17.8284 5.18457 19.8132C5.18457 21.7979 6.79355 23.4069 8.77832 23.4069Z" fill="#CB2929"/>
<path d="M6.785 16.808C8.48397 15.7839 9.03102 13.5764 8.00688 11.8774C6.98273 10.1784 4.77522 9.63137 3.07625 10.6555C1.37728 11.6797 0.830232 13.8872 1.85438 15.5861C2.87852 17.2851 5.08604 17.8322 6.785 16.808Z" fill="#CB2929"/>
<path d="M7.37549 6.78527C7.43631 5.28299 6.56555 3.9595 5.27782 3.37076V1.34766C5.27782 0.603391 4.67443 0 3.93016 0C3.18589 0 2.5825 0.603391 2.5825 1.34766V3.25315C1.24033 3.73013 0.255101 4.98399 0.193918 6.49436C0.113597 8.47748 1.65612 10.1503 3.63925 10.2306C5.62237 10.3109 7.29517 8.76839 7.37549 6.78527Z" fill="#CB2929"/>
<path d="M23.0864 34.3624V31.478C22.6519 31.5733 22.2014 31.6249 21.7387 31.6249C21.2761 31.6249 20.8256 31.5733 20.3911 31.478V34.3638C19.1079 34.1844 17.7614 34.5893 16.7798 35.5683C15.974 36.3735 15.5303 37.4444 15.5303 38.5838C15.5303 39.7232 15.974 40.794 16.7795 41.5987L20.7859 45.6052C21.0386 45.8581 21.3813 46 21.7387 46C22.0961 46 22.439 45.8581 22.6916 45.6052L26.6978 41.5992C27.5036 40.794 27.9473 39.7232 27.9473 38.5839C27.9473 37.4444 27.5036 36.3735 26.6977 35.5684C25.7164 34.588 24.3697 34.1825 23.0864 34.3624Z" fill="#CB2929"/>
<path d="M21.7388 28.9297C23.7235 28.9297 25.3325 27.3207 25.3325 25.3359C25.3325 23.3512 23.7235 21.7422 21.7388 21.7422C19.754 21.7422 18.145 23.3512 18.145 25.3359C18.145 27.3207 19.754 28.9297 21.7388 28.9297Z" fill="#CB2929"/>
</svg>
