<svg width="33" height="57" viewBox="0 0 33 57" fill="#cb2929" xmlns="http://www.w3.org/2000/svg">
<path d="M29.261 41.9804C28.5041 41.9804 27.8908 41.3671 27.8908 40.6101C27.8908 39.8532 28.5041 39.2399 29.261 39.2399H32.778C32.4092 34.8005 30.2739 30.8559 27.0739 28.1155V10.3738C27.0742 4.65349 22.4204 0 16.6998 0H16.041C10.3207 0 5.66689 4.65349 5.66689 10.3738V28.1492C2.48857 30.8883 0.368858 34.8186 0.00164334 39.2399H3.85247C4.60937 39.2399 5.22267 39.8532 5.22267 40.6101C5.22267 41.3671 4.60937 41.9804 3.85247 41.9804H0C0.661809 49.9599 7.03984 56.3382 15.0196 57V53.5293C15.0196 52.7724 15.6329 52.1591 16.3898 52.1591C17.1467 52.1591 17.76 52.7724 17.76 53.5293V57C25.7399 56.3382 32.1182 49.9602 32.78 41.9804H29.261ZM8.4073 10.3738C8.4073 6.16483 11.8317 2.74041 16.041 2.74041H16.6998C20.9091 2.74041 24.3335 6.16483 24.3335 10.3738V26.2096C22.3546 25.1134 20.1275 24.414 17.7598 24.2173V27.3296C17.7598 28.0865 17.1465 28.6998 16.3896 28.6998C15.6327 28.6998 15.0194 28.0865 15.0194 27.3296V24.2176C12.636 24.4157 10.3957 25.1235 8.40703 26.232V10.3738H8.4073ZM16.3898 48.6946C11.8441 48.6946 8.1456 44.9962 8.1456 40.4504C8.1456 35.9046 11.8441 32.2061 16.3898 32.2061C18.1284 32.2061 19.7416 32.7485 21.0727 33.6706L22.1359 32.6073C22.6711 32.0727 23.5385 32.0724 24.0737 32.6076C24.6086 33.1428 24.6086 34.0101 24.0734 34.5453L23.0373 35.5815C24.04 36.947 24.6341 38.6302 24.6341 40.4504C24.6344 44.9962 20.9359 48.6946 16.3898 48.6946ZM21.894 40.4504C21.894 43.4851 19.4249 45.9542 16.3898 45.9542C13.3551 45.9542 10.886 43.4851 10.886 40.4504C10.886 37.4156 13.3551 34.9465 16.3898 34.9465C19.4249 34.9465 21.894 37.4156 21.894 40.4504Z" fill="#cb2929"/>
</svg>
