<svg width="47" height="57" viewBox="0 0 47 57" fill="none" xmlns="http://www.w3.org/2000/svg">
<path d="M45.5013 27.0427C44.7454 26.2869 43.8281 25.9093 42.7481 25.9093H41.4534V18.1362C41.4534 13.1703 39.6726 8.90651 36.11 5.34399C32.5476 1.78133 28.2842 0 23.3177 0C18.3513 0 14.087 1.78133 10.5249 5.34385C6.96226 8.90651 5.1815 13.1702 5.1815 18.1362V25.9093H3.88623C2.80705 25.9093 1.88923 26.2869 1.13348 27.0427C0.377733 27.7978 0 28.7157 0 29.7958V53.1138C0 54.193 0.377875 55.1111 1.13348 55.8669C1.88923 56.622 2.80705 57 3.88623 57H42.7491C43.8291 57 44.7462 56.6224 45.5022 55.8669C46.2573 55.1111 46.6357 54.193 46.6357 53.1138V29.7954C46.6363 28.7161 46.2573 27.7984 45.5013 27.0427ZM33.6811 25.9093H12.9542V18.1362C12.9542 15.2755 13.9665 12.8329 15.9906 10.8091C18.0149 8.78499 20.4571 7.77317 23.3181 7.77317C26.1793 7.77317 28.6209 8.78485 30.6454 10.8091C32.669 12.8327 33.6811 15.2755 33.6811 18.1362V25.9093Z" fill="#CB2929"/>
<path d="M27.9511 42.702L27.0913 42.0297C27.1022 41.926 27.1116 41.8048 27.1116 41.6766C27.1116 41.5484 27.1026 41.4272 27.0913 41.3235L27.9519 40.6508C28.1117 40.5245 28.1554 40.3004 28.0536 40.1137L27.1595 38.5668C27.064 38.3922 26.8547 38.3025 26.6423 38.3809L25.6278 38.7882C25.4333 38.6479 25.2295 38.5294 25.0186 38.4347L24.8643 37.3586C24.839 37.1543 24.6612 37 24.4512 37H22.6583C22.4483 37 22.2709 37.1543 22.246 37.3555L22.0913 38.4355C21.887 38.5274 21.6863 38.6444 21.4832 38.7889L20.466 38.3805C20.2754 38.3068 20.0474 38.3895 19.9527 38.5633L19.0574 40.1122C18.9518 40.2907 18.9955 40.5226 19.1588 40.652L20.0186 41.3243C20.0049 41.4556 19.9983 41.5698 19.9983 41.677C19.9983 41.7842 20.0049 41.8984 20.0186 42.0301L19.158 42.7028C18.9982 42.8295 18.9549 43.0536 19.0566 43.2399L19.9507 44.7868C20.0462 44.961 20.2536 45.0514 20.4679 44.9727L21.4825 44.5654C21.6766 44.7054 21.8804 44.8238 22.0913 44.9189L22.2456 45.9946C22.2709 46.1996 22.4483 46.354 22.6587 46.354H24.4516C24.6616 46.354 24.8394 46.1996 24.8643 45.9985L25.019 44.9189C25.2233 44.8266 25.4236 44.71 25.627 44.565L26.6443 44.9735C26.6934 44.9926 26.7445 45.0023 26.7971 45.0023C26.9483 45.0023 27.0874 44.9197 27.1576 44.7911L28.0556 43.236C28.1554 43.0536 28.1117 42.8295 27.9511 42.702ZM23.5547 43.236C22.695 43.236 21.9958 42.5368 21.9958 41.677C21.9958 40.8172 22.695 40.118 23.5547 40.118C24.4145 40.118 25.1137 40.8172 25.1137 41.677C25.1137 42.5368 24.4145 43.236 23.5547 43.236Z" fill="white"/>
<path d="M33.2726 34.2284C32.8324 34.1883 32.4431 34.5126 32.4029 34.9528L32.2969 36.116C30.4979 33.2907 27.375 31.4022 23.7565 31.4022C19.8638 31.4022 16.4333 33.6239 14.7303 36.9584C14.5293 37.3521 14.6854 37.8341 15.079 38.0352C15.4728 38.2362 15.9547 38.0801 16.1558 37.6864C17.597 34.8644 20.4911 33.0028 23.7565 33.0028C26.7326 33.0028 29.4185 34.5526 30.9572 36.9806L29.8161 36.1656C29.4564 35.9088 28.9566 35.9921 28.6998 36.3517C28.4429 36.7114 28.5262 37.2112 28.8859 37.4681L32.3461 39.9395C32.8533 40.301 33.5528 39.97 33.6083 39.3609L33.9968 35.0981C34.037 34.6579 33.7127 34.2686 33.2726 34.2284Z" fill="white"/>
<path d="M32.4341 45.2569C32.0404 45.0559 31.5584 45.212 31.3574 45.6056C29.9162 48.4276 27.022 50.2892 23.7567 50.2892C20.7805 50.2892 18.0946 48.7394 16.5559 46.3114L17.697 47.1264C18.0567 47.3832 18.5565 47.2999 18.8134 46.9403C19.0702 46.5806 18.9869 46.0808 18.6273 45.8239L15.167 43.3526C14.666 42.9947 13.9609 43.3157 13.9049 43.9311L13.5163 48.1939C13.4762 48.6341 13.8005 49.0234 14.2406 49.0635C14.6813 49.1036 15.0702 48.779 15.1102 48.3392L15.2163 47.176C17.0153 50.0013 20.1382 51.8898 23.7567 51.8898C27.6494 51.8898 31.0799 49.6681 32.7828 46.3336C32.9839 45.94 32.8277 45.4579 32.4341 45.2569Z" fill="white"/>
</svg>
