<svg width="40" height="57" viewBox="0 0 40 57" fill="#cb2929" xmlns="http://www.w3.org/2000/svg">
<path d="M14.2968 25.2214C9.08326 25.2214 4.84166 20.9798 4.84166 15.7663C4.84166 10.5517 9.08326 6.30896 14.2968 6.30896C17.2703 6.30896 20.0869 7.73842 21.8604 10.093H28.5924V0.833848C28.5924 0.374062 28.2195 0 27.7597 0H0.833847C0.374061 0 0 0.374062 0 0.833848V56.1662C0 56.6259 0.374061 57 0.833847 57H27.7597C28.2195 57 28.5924 56.6259 28.5924 56.1662V21.4385H21.8604C20.0869 23.793 17.2703 25.2214 14.2968 25.2214V25.2214ZM15.9667 43.7909V49.3729C15.9667 50.2947 15.2186 51.0428 14.2968 51.0428C13.3738 51.0428 12.6268 50.2947 12.6268 49.3729V43.7909C9.89596 43.0539 7.8798 40.5557 7.8798 37.5944C7.8798 34.0564 10.7587 31.1786 14.2968 31.1786C17.8348 31.1786 20.7126 34.0564 20.7126 37.5944C20.7126 40.5557 18.6976 43.0539 15.9667 43.7909Z" fill="#cb2929"/>
<path d="M14.2968 34.5184C12.6002 34.5184 11.2197 35.8989 11.2197 37.5944C11.2197 39.291 12.6002 40.6715 14.2968 40.6715C15.9935 40.6715 17.3728 39.291 17.3728 37.5944C17.3728 35.8989 15.9935 34.5184 14.2968 34.5184Z" fill="#cb2929"/>
<path d="M36.705 13.4329H20.9755C20.3888 13.4329 19.8455 13.1245 19.5438 12.6224C18.4261 10.761 16.4645 9.64882 14.2969 9.64882C10.9248 9.64882 8.18164 12.3931 8.18164 15.7663C8.18164 19.1384 10.9248 21.8816 14.2969 21.8816C16.4645 21.8816 18.4261 20.7705 19.5438 18.908C19.8455 18.4059 20.3888 18.0986 20.9755 18.0986H36.705C37.9909 18.0986 39.0373 17.0521 39.0373 15.7663C39.0373 14.4793 37.9909 13.4329 36.705 13.4329V13.4329Z" fill="#cb2929"/>
</svg>
