<svg width="57" height="57" viewBox="0 0 57 57" fill="none" xmlns="http://www.w3.org/2000/svg">
<path d="M28.4996 14.8171C25.5049 14.8171 23.0684 17.2535 23.0684 20.2484C23.0684 23.2431 25.5048 25.6796 28.4996 25.6796C31.4944 25.6796 33.9309 23.2432 33.9309 20.2484C33.9309 17.2535 31.4943 14.8171 28.4996 14.8171Z" fill="#CB2929"/>
<path d="M12.3534 0C10.2034 0 8.4541 1.7493 8.4541 3.89927V40.7442C9.58052 40.0209 10.9182 39.5994 12.3534 39.5994H48.5464V0H12.3534ZM39.6364 21.9182H37.11C36.8816 23.0974 36.4182 24.1935 35.7677 25.154L37.5556 26.942L35.194 29.3036L33.4061 27.5156C32.4455 28.1661 31.3493 28.6297 30.1702 28.8579V31.3845H26.8304V28.8579C25.6512 28.6296 24.5549 28.1661 23.5945 27.5156L21.8066 29.3036L19.4451 26.942L21.233 25.154C20.5825 24.1935 20.119 23.0972 19.8907 21.9182H17.3641V18.5784H19.8906C20.119 17.3993 20.5824 16.3031 21.2329 15.3426L19.445 13.5546L21.8065 11.193L23.5944 12.981C24.5549 12.3305 25.6512 11.8669 26.8303 11.6387V9.11221H30.1702V11.6387C31.3494 11.867 32.4457 12.3305 33.4061 12.981L35.194 11.193L37.5556 13.5546L35.7677 15.3426C36.4182 16.3031 36.8817 17.3994 37.11 18.5784H39.6364V21.9182Z" fill="#CB2929"/>
<path d="M12.3534 42.9393C10.2033 42.9393 8.4541 44.6884 8.4541 46.8385C8.4541 48.9886 10.2034 50.7378 12.3534 50.7378H15.692V47.025H28.9325V50.7378H48.5464V42.9393H12.3534Z" fill="#CB2929"/>
<path d="M19.0312 50.3647V57L22.3116 55.5237L25.5923 57V50.3647H19.0312Z" fill="#CB2929"/>
</svg>
