<svg width="35" height="30" viewBox="0 0 35 30" fill="none" xmlns="http://www.w3.org/2000/svg">
<path d="M28.9151 16.2823C26.7443 17.9103 24.0944 19.0406 21.2102 19.5983C20.919 21.6612 19.1427 23.2536 17.0006 23.2536C14.8584 23.2536 13.0821 21.6612 12.7909 19.5983C9.90674 19.0406 7.25678 17.9103 5.08602 16.2823C1.80624 13.8225 0 10.5252 0 6.99779V25.0941C0 27.7992 2.20084 30 4.90592 30H29.0952C31.8003 30 34.0011 27.7992 34.0011 25.0941V6.99779C34.0011 10.5252 32.1949 13.8225 28.9151 16.2823Z" fill="white"/>
<path d="M12.7481 17.5543V15.7448C12.7481 15.1947 13.1941 14.7487 13.7442 14.7487H20.2569C20.807 14.7487 21.253 15.1947 21.253 15.7448V17.5543C27.464 16.2061 32.0089 11.9843 32.0089 6.99779V6.00166H23.9983V4.02216C23.9983 1.80432 22.194 0 19.9762 0H14.025C11.8072 0 10.0028 1.80432 10.0028 4.02216V6.00166H1.99225V6.99779C1.99225 11.9843 6.53711 16.2061 12.7481 17.5543ZM11.995 4.02216C11.995 2.90284 12.9057 1.99225 14.0249 1.99225H19.9761C21.0954 1.99225 22.006 2.90284 22.006 4.02216V6.00166H11.9949V4.02216H11.995Z" fill="white"/>
<path d="M19.2608 16.7409H14.7404V19.0011C14.7404 20.2474 15.7543 21.2613 17.0006 21.2613C18.2468 21.2613 19.2608 20.2474 19.2608 19.0011V16.7409Z" fill="white"/>
</svg>
