<svg width="57" height="57" viewBox="0 0 57 57" fill="none" xmlns="http://www.w3.org/2000/svg">
<path d="M28.4999 0C24.6203 0 21.464 3.15638 21.464 7.03594C21.464 10.9155 24.6204 14.0719 28.4999 14.0719C32.3795 14.0719 35.5359 10.9156 35.5359 7.03594C35.5359 3.15626 32.3796 0 28.4999 0Z" fill="#CB2929"/>
<path d="M28.4999 21.4641C24.6203 21.4641 21.464 24.6204 21.464 28.5C21.464 32.3796 24.6204 35.5359 28.4999 35.5359C32.3795 35.5359 35.5359 32.3796 35.5359 28.5C35.5359 24.6204 32.3796 21.4641 28.4999 21.4641Z" fill="#CB2929"/>
<path d="M28.4999 42.9281C24.6203 42.9281 21.464 46.0844 21.464 49.9641C21.464 53.8437 24.6203 57 28.4999 57C32.3796 57 35.5359 53.8436 35.5359 49.9641C35.5359 46.0845 32.3796 42.9281 28.4999 42.9281Z" fill="#CB2929"/>
<path d="M7.03594 0C3.15638 0 0 3.15638 0 7.03594C0 10.9155 3.15638 14.0719 7.03594 14.0719C10.9155 14.0719 14.0719 10.9156 14.0719 7.03594C14.0719 3.15626 10.9156 0 7.03594 0Z" fill="#CB2929"/>
<path d="M7.03594 21.4641C3.15638 21.4641 0 24.6203 0 28.5C0 32.3797 3.15638 35.5359 7.03594 35.5359C10.9155 35.5359 14.0719 32.3796 14.0719 28.5C14.0719 24.6204 10.9156 21.4641 7.03594 21.4641Z" fill="#CB2929"/>
<path d="M7.03594 42.9281C3.15638 42.9281 0 46.0844 0 49.9641C0 53.8437 3.15638 57 7.03594 57C10.9155 57 14.0719 53.8436 14.0719 49.9641C14.0719 46.0845 10.9156 42.9281 7.03594 42.9281Z" fill="#CB2929"/>
<path d="M49.964 0C46.0845 0 42.9281 3.15638 42.9281 7.03594C42.9281 10.9155 46.0844 14.0719 49.964 14.0719C53.8437 14.0719 57 10.9156 57 7.03594C57 3.15626 53.8436 0 49.964 0Z" fill="#CB2929"/>
<path d="M49.964 21.4641C46.0844 21.4641 42.9281 24.6204 42.9281 28.5C42.9281 32.3796 46.0845 35.5359 49.964 35.5359C53.8436 35.5359 57 32.3797 57 28.5C57 24.6203 53.8436 21.4641 49.964 21.4641Z" fill="#CB2929"/>
<path d="M49.964 42.9281C46.0844 42.9281 42.9281 46.0844 42.9281 49.9641C42.9281 53.8437 46.0845 57 49.964 57C53.8436 57 57 53.8436 57 49.9641C57 46.0845 53.8436 42.9281 49.964 42.9281Z" fill="#CB2929"/>
</svg>
