<svg width="42" height="43" viewBox="0 0 42 43" fill="none" xmlns="http://www.w3.org/2000/svg">
<rect x="41.1665" width="12.6667" height="12.6667" transform="rotate(90 41.1665 0)" fill="#CB2929"/>
<rect x="26.9165" width="12.6667" height="12.6667" transform="rotate(90 26.9165 0)" fill="#CB2929"/>
<rect x="12.6667" width="12.6667" height="12.6667" transform="rotate(90 12.6667 0)" fill="#CB2929"/>
<rect x="41.1665" y="14.7778" width="12.6667" height="12.6667" transform="rotate(90 41.1665 14.7778)" fill="#CB2929"/>
<rect x="26.9165" y="14.7778" width="12.6667" height="12.6667" transform="rotate(90 26.9165 14.7778)" fill="#CB2929"/>
<rect x="12.6667" y="14.7778" width="12.6667" height="12.6667" transform="rotate(90 12.6667 14.7778)" fill="#CB2929"/>
<rect x="41.1665" y="29.5555" width="12.6667" height="12.6667" transform="rotate(90 41.1665 29.5555)" fill="#CB2929"/>
<rect x="26.9165" y="29.5555" width="12.6667" height="12.6667" transform="rotate(90 26.9165 29.5555)" fill="#CB2929"/>
<rect x="12.6667" y="29.5555" width="12.6667" height="12.6667" transform="rotate(90 12.6667 29.5555)" fill="#CB2929"/>
<circle cx="10" cy="7" r="1" fill="white"/>
<circle cx="10" cy="21" r="1" fill="white"/>
<circle cx="10" cy="35" r="1" fill="white"/>
<circle cx="24" cy="7" r="1" fill="white"/>
<circle cx="24" cy="21" r="1" fill="white"/>
<circle cx="24" cy="35" r="1" fill="white"/>
<circle cx="38" cy="7" r="1" fill="white"/>
<circle cx="38" cy="21" r="1" fill="white"/>
<circle cx="38" cy="35" r="1" fill="white"/>
</svg>
