<svg width="59" height="57" viewBox="0 0 59 57" fill="#cb2929" xmlns="http://www.w3.org/2000/svg">
<path d="M51.7287 26.3689C51.5566 24.2292 51.0858 22.1476 50.322 20.1526L55.5841 15.9381L47.0332 5.26099L41.803 9.44927C39.9973 8.23287 38.0445 7.2936 35.9732 6.64606V0H22.2934V6.68939C20.1275 7.38256 18.0949 8.39595 16.2231 9.71488L10.9381 5.60757L2.54331 16.4088L7.92176 20.588C7.20362 22.5875 6.77607 24.6668 6.64503 26.7986L0 28.3889L3.18287 41.6924L7.85789 40.5741C10.1608 38.2712 12.2398 36.1921 14.9736 33.4584C11.34 23.5968 18.6448 13.055 29.2051 13.055C37.5782 13.055 44.3667 19.8436 44.3667 28.2167C44.3667 38.5583 34.2189 45.8604 24.4343 42.6111C23.6527 43.3927 15.5554 51.4899 14.2975 52.7479L23.3182 57L26.3186 50.6344C28.3911 50.9011 30.459 50.8795 32.4916 50.5831L35.565 56.8643L47.8528 50.8521L44.7874 44.5868C46.3059 43.1425 47.6077 41.5066 48.6713 39.7021L55.4029 41.2092L58.3908 27.8599L51.7287 26.3689Z" fill="#cb2929"/>
<path d="M38.9224 24.2872L37.9625 21.8728L32.1862 27.6479L29.5916 25.0533L35.3678 19.2782L32.9534 18.3171C23.5029 14.5581 14.7659 24.8974 19.7252 33.5426C6.96758 46.3003 17.8703 35.3987 2.54346 50.7256L7.01332 55.1954C15.9169 46.2919 7.26855 54.9415 24.3547 37.8552C33.0767 42.0851 42.5201 33.3257 38.9224 24.2872Z" fill="#cb2929"/>
</svg>
