<svg width="52" height="57" viewBox="0 0 52 57" fill="#cb2929" xmlns="http://www.w3.org/2000/svg">
<path d="M25.2064 28.9571C24.9308 28.4794 24.3302 28.1328 23.7787 28.1328H9.01588C8.46435 28.1328 7.86382 28.4794 7.58817 28.9571L0.206824 41.742C-0.0689414 42.2197 -0.0689414 42.9129 0.206824 43.3906L7.58817 56.1757C7.86382 56.6533 8.46435 57 9.01588 57H23.7787C24.3302 57 24.9308 56.6533 25.2064 56.1757L32.5878 43.3906C32.8635 42.9129 32.8635 42.2197 32.5878 41.742L25.2064 28.9571ZM16.3972 49.5887C12.525 49.5887 9.3748 46.4385 9.3748 42.5663C9.3748 38.6942 12.525 35.544 16.3972 35.544C20.2694 35.544 23.4197 38.6942 23.4197 42.5663C23.4197 46.4386 20.2694 49.5887 16.3972 49.5887Z" fill="#cb2929"/>
<path d="M51.4191 27.1653L47.0526 19.6023C46.777 19.1246 46.1765 18.778 45.6249 18.778H36.892C36.3405 18.778 35.74 19.1246 35.4643 19.6023L31.0977 27.1653C30.8219 27.6429 30.8219 28.3362 31.0977 28.8138L35.4643 36.3769C35.74 36.8546 36.3405 37.2012 36.892 37.2012H45.6249C46.1765 37.2012 46.777 36.8546 47.0526 36.3769L51.4191 28.8138C51.6949 28.3362 51.6949 27.6429 51.4191 27.1653ZM41.2583 31.2879C39.4397 31.2879 37.9601 29.8083 37.9601 27.9896C37.9601 26.1711 39.4397 24.6915 41.2583 24.6915C43.0769 24.6915 44.5566 26.1711 44.5566 27.9896C44.5566 29.8083 43.077 31.2879 41.2583 31.2879Z" fill="#cb2929"/>
<path d="M5.17758 17.005L11.1752 22.954C11.4297 23.2062 11.8581 23.3823 12.2172 23.3823L20.668 23.3479C21.0284 23.3466 21.4574 23.1669 21.7113 22.911L27.66 16.9136C27.9138 16.6577 28.0899 16.2273 28.0885 15.8671L28.0542 7.42057C28.0529 7.06021 27.8732 6.63117 27.6173 6.37725L21.6197 0.428312C21.3651 0.17608 20.9368 0 20.5734 0L12.1269 0.0343953C11.7663 0.0357228 11.3371 0.215423 11.0837 0.471276L5.13474 6.46873C4.88106 6.72446 4.70486 7.15482 4.70631 7.51519L4.7407 15.9618C4.74203 16.3222 4.92173 16.7512 5.17758 17.005ZM16.3772 6.71384H16.3976C19.1308 6.71384 21.3635 8.93759 21.3746 11.6709C21.3857 14.4155 19.162 16.6573 16.4177 16.6684H16.3973C13.664 16.6684 11.4313 14.4447 11.4201 11.7115C11.409 8.96703 13.6328 6.72494 16.3772 6.71384Z" fill="#cb2929"/>
</svg>
