<svg width="57" height="57" viewBox="0 0 57 57" fill="none" xmlns="http://www.w3.org/2000/svg">
<g clip-path="url(#clip0)">
<path d="M38.7954 37.9251C41.5412 34.1081 43.2293 29.7221 43.7563 25.0926L28.5 20.7543L13.2437 25.0926C13.7705 29.722 15.4586 34.1081 18.2045 37.9251C20.878 41.6412 24.4261 44.631 28.5 46.6086C32.5738 44.631 36.122 41.6412 38.7954 37.9251Z" fill="#CB2929"/>
<path d="M28.5001 17.2146L43.935 21.6037V14.5242L28.5001 10.1351L13.0652 14.5242V21.6037L28.5001 17.2146Z" fill="#CB2929"/>
<path d="M30.2024 0V7.0795L47.3396 11.9527V21.9423C47.3396 28.4426 45.3409 34.657 41.5594 39.9136C38.6032 44.0226 34.693 47.3413 30.2024 49.5653V57.0001C36.9834 54.3577 42.8032 49.8451 47.087 43.8902C51.707 37.4682 54.1492 29.8786 54.1492 21.9423V6.80951L30.2024 0Z" fill="#CB2929"/>
<path d="M26.7976 49.5652C22.307 47.3412 18.3967 44.0224 15.4407 39.9135C11.6592 34.657 9.66034 28.4426 9.66034 21.9422V11.9526L26.7976 7.07939V0L2.85083 6.80951V21.9422C2.85083 29.8785 5.29295 37.4681 9.91297 43.8901C14.1969 49.845 20.0167 54.3576 26.7976 57V49.5652Z" fill="#CB2929"/>
</g>
<defs>
<clipPath id="clip0">
<rect width="57" height="57" fill="white"/>
</clipPath>
</defs>
</svg>
