<svg width="26" height="26" viewBox="0 0 26 26" fill="none" xmlns="http://www.w3.org/2000/svg">
<path d="M13 12.1949C13.8892 12.1949 14.6101 11.474 14.6101 10.5848C14.6101 9.69559 13.8892 8.97473 13 8.97473C12.1108 8.97473 11.3899 9.69559 11.3899 10.5848C11.3899 11.474 12.1108 12.1949 13 12.1949Z" fill="white"/>
<path d="M20.3459 4.547H5.65388C5.26544 4.547 4.94946 4.86298 4.94946 5.25141V20.7485C4.94946 21.1369 5.26544 21.4529 5.65388 21.4529H20.3459C20.7343 21.4529 21.0503 21.1369 21.0503 20.7485V5.25141C21.0503 4.86298 20.7343 4.547 20.3459 4.547ZM8.57216 17.0252C8.57216 17.4698 8.21175 17.8302 7.76711 17.8302C7.32248 17.8302 6.96207 17.4698 6.96207 17.0252V13.805C6.96207 13.3604 7.32248 12.9999 7.76711 12.9999C8.21175 12.9999 8.57216 13.3604 8.57216 13.805V17.0252ZM12.9999 13.805C11.2243 13.805 9.77972 12.3604 9.77972 10.5848C9.77972 8.8092 11.2243 7.36465 12.9999 7.36465C14.7755 7.36465 16.2201 8.8092 16.2201 10.5848C16.2201 12.3604 14.7755 13.805 12.9999 13.805Z" fill="white"/>
<path d="M25.2265 12.1949H22.912C22.7731 12.1949 22.6604 12.3076 22.6604 12.4465V13.5535C22.6604 13.6924 22.7731 13.805 22.912 13.805H25.2265C25.3654 13.805 25.4781 13.6924 25.4781 13.5535V12.4465C25.4781 12.3076 25.3654 12.1949 25.2265 12.1949Z" fill="white"/>
<path d="M22.912 10.5849H25.2265C25.3654 10.5849 25.4781 10.4723 25.4781 10.3334V8.42138C25.4781 8.28246 25.3654 8.1698 25.2265 8.1698H22.912C22.7731 8.1698 22.6604 8.28246 22.6604 8.42138V10.3334C22.6604 10.4723 22.7731 10.5849 22.912 10.5849Z" fill="white"/>
<path d="M22.6604 19.6919V20.7485C22.6604 22.0268 21.6242 23.063 20.3459 23.063H5.65388C4.37562 23.063 3.33938 22.0268 3.33938 20.7485V5.25141C3.33938 3.97316 4.37562 2.93691 5.65388 2.93691H20.3459C21.6242 2.93691 22.6604 3.97316 22.6604 5.25141V6.30803C22.6604 6.44695 22.7731 6.55961 22.912 6.55961H25.2265C25.3654 6.55961 25.4781 6.44695 25.4781 6.30803V2.43376C25.4781 1.1555 24.4418 0.119263 23.1636 0.119263H2.83623C1.55797 0.119263 0.521729 1.1555 0.521729 2.43376V23.5661C0.521729 24.8444 1.55797 25.8806 2.83623 25.8806H23.1636C24.4418 25.8806 25.4781 24.8444 25.4781 23.5661V19.6919C25.4781 19.553 25.3654 19.4403 25.2265 19.4403H22.912C22.7731 19.4403 22.6604 19.553 22.6604 19.6919Z" fill="white"/>
<path d="M25.2265 15.4152H22.912C22.7731 15.4152 22.6604 15.5278 22.6604 15.6667V17.5787C22.6604 17.7176 22.7731 17.8303 22.912 17.8303H25.2265C25.3654 17.8303 25.4781 17.7176 25.4781 17.5787V15.6667C25.4781 15.5278 25.3654 15.4152 25.2265 15.4152Z" fill="white"/>
</svg>
