<svg width="44" height="43" viewBox="0 0 44 43" fill="none" xmlns="http://www.w3.org/2000/svg">
<path d="M42.9532 28.702C42.9896 28.6365 43.0121 28.5623 43.0121 28.4823C43.0121 28.3626 42.9648 28.2545 42.8892 28.1731C43.1568 28.0471 43.3424 27.7761 43.3424 27.4613C43.3424 27.1683 43.1817 26.9121 42.9432 26.777L42.554 26.1616L42.1646 26.777C41.9259 26.9121 41.7646 27.1683 41.7646 27.4613C41.7646 27.7761 41.9506 28.0472 42.2187 28.1732C42.1431 28.2546 42.0959 28.3627 42.0959 28.4823C42.0959 28.5624 42.1183 28.6366 42.1547 28.702H39.9733C40.0096 28.6365 40.032 28.5623 40.032 28.4823C40.032 28.3626 39.9849 28.2545 39.9092 28.1732C40.1773 28.0472 40.3634 27.7761 40.3634 27.4613C40.3634 27.1683 40.2016 26.9121 39.9633 26.777L39.5739 26.1616L39.1848 26.777C38.9463 26.9121 38.7851 27.1683 38.7851 27.4613C38.7851 27.7761 38.971 28.0472 39.2389 28.1732C39.1632 28.2546 39.1161 28.3627 39.1161 28.4823C39.1161 28.5624 39.1386 28.6366 39.1748 28.702H36.9934C37.0298 28.6365 37.0521 28.5623 37.0521 28.4823C37.0521 28.3626 37.005 28.2546 36.9296 28.1732C37.1977 28.0475 37.3835 27.7763 37.3835 27.4613C37.3835 27.1683 37.2226 26.9121 36.9835 26.777L36.5942 26.1616L36.2047 26.777C35.9664 26.9121 35.8055 27.1683 35.8055 27.4613C35.8055 27.7761 35.9912 28.0472 36.259 28.1731C36.1834 28.2545 36.1361 28.3626 36.1361 28.4823C36.1361 28.5624 36.1586 28.6366 36.195 28.702H34.0143C34.0506 28.6365 34.0731 28.5623 34.0731 28.4823C34.0731 28.2302 33.868 28.0256 33.615 28.0256C33.5102 28.0256 33.4148 28.0621 33.3377 28.1211L33.3062 27.963C33.4011 28.0033 33.5055 28.0256 33.6149 28.0256C34.0505 28.0256 34.4033 27.6729 34.4033 27.2383C34.4033 26.9454 34.2426 26.6891 34.0041 26.5541L33.6149 25.9386L33.2255 26.5541C33.1616 26.5902 33.1038 26.6355 33.0526 26.6875L28.2539 2.54607H28.2605V0.718518L26.41 2.54618H25.3761C25.4145 2.47942 25.4382 2.40298 25.4382 2.32038C25.4382 2.20057 25.3909 2.09258 25.3154 2.01116C25.5831 1.88544 25.7687 1.61474 25.7687 1.29974C25.7687 1.006 25.6077 0.750657 25.3695 0.61572L24.9801 0.000236327L24.5907 0.61572C24.3517 0.750775 24.1907 1.006 24.1907 1.29974C24.1907 1.61474 24.3767 1.88544 24.6447 2.01116C24.5691 2.09258 24.522 2.20069 24.522 2.32038C24.522 2.40298 24.5457 2.47942 24.5841 2.54618H22.3961C22.4345 2.47942 22.4582 2.40298 22.4582 2.32038C22.4582 2.20057 22.4111 2.09258 22.3354 2.01116C22.6034 1.88544 22.7893 1.61474 22.7893 1.29974C22.7893 1.006 22.6278 0.750657 22.3893 0.61572L22.0001 0L21.6107 0.615484C21.3725 0.750539 21.2107 1.00576 21.2107 1.2995C21.2107 1.61451 21.3967 1.88521 21.6647 2.01093C21.5892 2.09234 21.542 2.20045 21.542 2.32015C21.542 2.40274 21.5656 2.47919 21.604 2.54595H19.416C19.4544 2.47919 19.478 2.40274 19.478 2.32015C19.478 2.20034 19.431 2.09234 19.3554 2.01093C19.6235 1.88533 19.8093 1.61451 19.8093 1.2995C19.8093 1.00576 19.6484 0.75042 19.4093 0.615484L19.0199 0L18.6308 0.615484C18.3923 0.750539 18.2315 1.00576 18.2315 1.2995C18.2315 1.61451 18.4171 1.88521 18.6848 2.01093C18.6092 2.09234 18.5621 2.20045 18.5621 2.32015C18.5621 2.40274 18.5858 2.47919 18.624 2.54595H17.5904L15.7394 0.718281V2.54595H15.746L10.9474 26.6874C10.8962 26.6355 10.8384 26.5901 10.7745 26.554L10.3853 25.9385L9.99592 26.554C9.75765 26.689 9.5967 26.9453 9.5967 27.2382C9.5967 27.6728 9.9495 28.0255 10.3853 28.0255C10.4949 28.0255 10.5991 28.0032 10.6938 27.963L10.6623 28.1209C10.5852 28.0619 10.4899 28.0255 10.3852 28.0255C10.132 28.0255 9.92711 28.23 9.92711 28.4822C9.92711 28.5623 9.94961 28.6365 9.98597 28.7018H7.80526C7.84162 28.6364 7.86412 28.5622 7.86412 28.4822C7.86412 28.3625 7.81687 28.2544 7.74119 28.1731C8.00896 28.0471 8.19465 27.776 8.19465 27.4612C8.19465 27.1681 8.03371 26.912 7.79543 26.7769L7.40605 26.1614L7.0169 26.7769C6.77756 26.912 6.61685 27.1681 6.61685 27.4612C6.61685 27.7761 6.80266 28.0474 7.0709 28.1731C6.99534 28.2545 6.94821 28.3626 6.94821 28.4822C6.94821 28.5623 6.97059 28.6365 7.00695 28.7018H4.82553C4.86189 28.6364 4.88427 28.5622 4.88427 28.4822C4.88427 28.3625 4.83714 28.2544 4.76146 28.173C5.02946 28.0471 5.21539 27.776 5.21539 27.4612C5.21539 27.1681 5.05386 26.912 4.81558 26.7769L4.4262 26.1614L4.03681 26.7769C3.79854 26.912 3.63676 27.1681 3.63676 27.4612C3.63676 27.776 3.82293 28.0471 4.09093 28.173C4.01526 28.2544 3.96812 28.3625 3.96812 28.4822C3.96812 28.5623 3.99062 28.6365 4.02698 28.7018H1.84556C1.88192 28.6364 1.90442 28.5622 1.90442 28.4822C1.90442 28.3625 1.85729 28.2544 1.78161 28.173C2.04949 28.0471 2.23554 27.776 2.23554 27.4612C2.23554 27.1681 2.0746 26.912 1.83549 26.7769L1.44634 26.1614L1.05696 26.7769C0.818683 26.912 0.657742 27.1681 0.657742 27.4612C0.657742 27.776 0.843316 28.0471 1.11108 28.173C1.0354 28.2544 0.98827 28.3625 0.98827 28.4822C0.98827 28.5623 1.01065 28.6365 1.04701 28.7018H0V43H4.79604V35.1253H4.51241V34.2842H6.53028V35.1253H6.24665V43H7.77518V35.1253H7.49179V34.2842H9.51002V35.1253H9.22662V43H10.7552V35.1253H10.4715V34.2842H12.4899V35.1253H12.2065V43H19.2192V32.5945H24.7811V43H31.7936V35.1253H31.5106V34.2842H33.5285V35.1253H33.2449V43H34.7734V35.1253H34.4897V34.2842H36.5084V35.1253H36.2248V43H37.7533V35.1253H37.4697V34.2842H39.4874V35.1253H39.2041V43H44V28.702H42.9532ZM6.90569 34.1011H4.13747V33.3978H4.60265V32.995H5.23813V33.3978H5.80504V32.995H6.44052V33.3978H6.90569V34.1011ZM9.88495 34.1011H7.11732V33.3978H7.58191V32.995H8.21798V33.3978H8.7843V32.995H9.42037V33.3978H9.88495V34.1011ZM12.8648 34.1011H10.0972V33.3978H10.5618V32.995H11.1977V33.3978H11.7639V32.995H12.4V33.3978H12.8648V34.1011ZM22.6941 24.8656H21.306V22.8171H22.6941V24.8656ZM22.6941 18.9192H21.306V16.8715H22.6941V18.9192ZM22.6941 12.9737H21.306V10.9261H22.6941V12.9737ZM22.6941 7.02815H21.306V4.97964H22.6941V7.02815ZM33.9029 34.1011H31.1353V33.3978H31.6001V32.995H32.2362V33.3978H32.8029V32.995H33.4386V33.3978H33.9029V34.1011ZM36.883 34.1011H34.1152V33.3978H34.5798V32.995H35.2161V33.3978H35.7824V32.995H36.4184V33.3978H36.883V34.1011ZM39.8629 34.1011H37.0945V33.3978H37.5596V32.995H38.1953V33.3978H38.7622V32.995H39.3975V33.3978H39.8629V34.1011Z" fill="#CB2929"/>
</svg>
