<svg width="27" height="27" viewBox="0 0 27 27" fill="none" xmlns="http://www.w3.org/2000/svg">
<path d="M13.2594 0.636719C6.09984 0.636719 0.295898 6.44066 0.295898 13.6002C0.295898 20.7597 6.09984 26.5636 13.2594 26.5636C20.4189 26.5636 26.2228 20.7597 26.2228 13.6002C26.2152 6.44386 20.4157 0.644369 13.2594 0.636719ZM18.7188 14.0132C18.629 14.1932 18.4831 14.3392 18.3031 14.4289V14.4335L10.8954 18.1374C10.4379 18.366 9.88178 18.1805 9.65315 17.723C9.58815 17.593 9.55467 17.4494 9.55549 17.304V9.89636C9.55527 9.38495 9.96962 8.97022 10.481 8.96995C10.6249 8.96989 10.7667 9.00331 10.8954 9.06761L18.3031 12.7715C18.7608 12.9996 18.9469 13.5555 18.7188 14.0132Z" fill="black"/>
</svg>
